# xmcd
#
# Track frame offsets: 
#        150
#        16495
#        32510
#        43027
#        58727
#        74380
#        86190
#        100210
#        117097
#        130887
#        146742
#        161777
#
# Disc length: 2351 seconds
#
# Revision: 3
# Processed by: cddbd v1.4PL0 Copyright (c) Steve Scherf et al.
# Submitted via: ExactAudioCopy v0.90b4
#
DISCID=aa092d0c
DTITLE=George Strait - The Best Of George Strait (20th Century Masters
DTITLE=The Millennium Collection)
DYEAR=2002
DGENRE=Country
TTITLE0=Famous Last Words
TTITLE1=Baby Blue
TTITLE2=If You Ain't Lovin' (You Ain't Livin')
TTITLE3=Baby's Gotten Good At Goodbye
TTITLE4=What's Going On In Your World
TTITLE5=Ace In The Hole
TTITLE6=Love Without End, Amen
TTITLE7=I've Come To Expect It From You
TTITLE8=Easy Come, Easy Go
TTITLE9=I Cross My Heart
TTITLE10=All My Ex's Live In Texas
TTITLE11=You Look So Good In Love
EXTD=YEAR: 2002
EXTT0=
EXTT1=
EXTT2=
EXTT3=
EXTT4=
EXTT5=
EXTT6=
EXTT7=
EXTT8=
EXTT9=
EXTT10=
EXTT11=
PLAYORDER=
